<svg data-v-423bf9ae="" xmlns="http://www.w3.org/2000/svg" viewBox="0 0 623 90" class="iconLeft"><!----><!----><!----><g data-v-423bf9ae="" id="5613176a-2ac8-46c2-b7ae-37dbc55ddf88" fill="#FFFFFF" transform="matrix(5.70884859118442,0,0,5.70884859118442,109.02949073053361,-3.9533776568812513)"><path d="M6.92 13.52C7.10 13.52 7.15 13.38 7.15 13.24C7.15 12.96 7.13 12.88 6.90 12.85C5.81 12.75 5.63 12.81 5.63 12.45L5.63 5.11C5.63 4.93 5.64 4.73 5.94 4.73L7.99 4.73C8.43 4.73 8.40 4.82 9.06 5.96C9.11 6.06 9.20 6.23 9.38 6.23C9.53 6.23 9.65 6.09 9.65 5.92C9.65 5.84 9.59 5.56 9.31 4.13C9.28 3.95 9.25 3.81 9.03 3.81L0.87 3.81C0.76 3.81 0.62 3.82 0.57 4.02C0.18 5.82 0.17 5.87 0.17 5.95L0.17 5.96C0.17 6.16 0.29 6.31 0.48 6.31C0.74 6.31 0.76 6.15 1.33 5.01C1.43 4.82 1.48 4.73 1.86 4.73L3.95 4.73C4.31 4.73 4.33 4.97 4.33 5.17L4.33 12.26C4.33 12.54 4.27 12.74 3.85 12.78C2.98 12.87 2.83 12.81 2.83 13.16C2.83 13.36 2.88 13.52 3.11 13.52C3.16 13.52 4.00 13.44 5.01 13.44C6.03 13.44 6.85 13.52 6.92 13.52ZM11.72 8.16C11.69 8.16 11.68 8.13 11.68 8.09L11.68 7.53C11.68 7.41 11.66 7.25 11.51 7.25C11.47 7.25 11.42 7.28 11.38 7.29C9.93 8.01 9.91 7.98 9.91 8.05C9.93 8.11 9.95 8.13 9.97 8.15C10.63 8.62 10.74 8.61 10.74 8.89L10.74 12.60C10.74 12.81 10.68 12.89 10.49 12.94C10.11 13.03 9.86 12.95 9.86 13.29C9.86 13.43 9.94 13.52 10.08 13.52C10.12 13.52 10.72 13.44 11.51 13.44C12.26 13.44 12.88 13.52 12.92 13.52C13.10 13.52 13.12 13.36 13.12 13.24C13.12 12.92 12.94 12.98 12.10 12.91C11.76 12.88 11.75 12.64 11.75 12.49L11.75 12.43L11.75 9.07C11.75 8.97 11.75 8.90 11.80 8.82C11.89 8.69 12.45 8.25 12.89 8.25C13.36 8.25 13.37 8.60 13.72 8.60C13.96 8.60 14.14 8.41 14.29 8.32C14.41 8.22 14.66 8.06 14.67 7.83L14.67 7.81C14.67 7.42 14.03 7.20 13.58 7.20C13.43 7.20 13.30 7.21 13.17 7.25C12.80 7.39 11.77 8.16 11.72 8.16ZM19.73 12.98C19.74 12.98 19.77 12.98 19.77 13.03L19.77 13.36C19.77 13.50 19.80 13.64 19.96 13.64C20.02 13.64 20.08 13.61 20.12 13.58C21.32 12.92 21.52 13.24 21.52 12.82C21.52 12.74 21.50 12.70 21.41 12.66C20.79 12.36 20.71 12.40 20.71 12.24L20.71 7.85C20.71 7.71 20.69 7.57 20.50 7.57C20.31 7.57 20.15 7.59 18.77 7.63C18.66 7.64 18.58 7.69 18.58 7.87C18.58 8.01 18.65 8.06 18.79 8.09C19.50 8.22 19.71 8.20 19.71 8.60L19.71 12.04C19.71 12.21 19.68 12.22 19.47 12.46C19.22 12.71 18.82 12.96 18.28 12.96C17.54 12.96 17.02 12.46 16.80 12.03C16.55 11.52 16.55 11.00 16.55 10.58L16.55 7.71C16.55 7.62 16.52 7.55 16.41 7.55C16.27 7.55 16.11 7.56 14.95 7.63C14.81 7.64 14.80 7.73 14.80 7.83L14.80 7.87C14.80 8.11 14.98 8.05 15.23 8.16C15.61 8.30 15.61 8.43 15.61 8.55C15.61 8.78 15.60 10.36 15.60 10.81C15.60 11.10 15.61 11.38 15.64 11.66C15.81 12.95 16.65 13.69 17.78 13.69C18.94 13.69 19.66 12.98 19.73 12.98ZM22.20 9.11C22.20 9.80 22.62 10.50 23.76 10.82C24.21 10.95 25.44 11.09 25.44 12.01C25.44 12.57 24.93 12.95 24.30 12.95C23.49 12.95 22.85 12.42 22.71 12.12C22.51 11.73 22.74 11.26 22.39 11.26C22.18 11.26 22.13 11.33 22.13 11.69C22.13 11.89 22.15 12.15 22.15 12.53C22.15 12.74 22.18 12.85 22.32 13.01C22.72 13.48 23.60 13.71 24.25 13.71C25.63 13.71 26.38 12.71 26.38 11.82C26.38 11.59 26.32 11.13 25.96 10.71C25.44 10.11 24.78 10.07 24.07 9.87C23.03 9.58 22.96 9.06 22.96 8.86C22.96 8.41 23.37 8.12 23.84 8.12C24.30 8.12 24.81 8.41 24.99 8.67C25.19 8.95 25.14 9.35 25.44 9.35C25.55 9.35 25.76 9.31 25.76 9.13C25.76 9.07 25.58 8.15 25.49 7.66C25.48 7.59 25.44 7.39 25.27 7.39C25.10 7.39 25.05 7.53 24.92 7.53C24.85 7.53 24.64 7.46 24.22 7.46C22.96 7.46 22.20 8.27 22.20 9.11ZM26.94 9.11C26.94 9.80 27.36 10.50 28.49 10.82C28.94 10.95 30.17 11.09 30.17 12.01C30.17 12.57 29.67 12.95 29.04 12.95C28.22 12.95 27.58 12.42 27.44 12.12C27.24 11.73 27.47 11.26 27.12 11.26C26.91 11.26 26.87 11.33 26.87 11.69C26.87 11.89 26.88 12.15 26.88 12.53C26.88 12.74 26.91 12.85 27.05 13.01C27.45 13.48 28.34 13.71 28.98 13.71C30.37 13.71 31.11 12.71 31.11 11.82C31.11 11.59 31.05 11.13 30.69 10.71C30.17 10.11 29.51 10.07 28.80 9.87C27.76 9.58 27.69 9.06 27.69 8.86C27.69 8.41 28.10 8.12 28.57 8.12C29.04 8.12 29.54 8.41 29.72 8.67C29.92 8.95 29.88 9.35 30.17 9.35C30.28 9.35 30.49 9.31 30.49 9.13C30.49 9.07 30.31 8.15 30.23 7.66C30.21 7.59 30.17 7.39 30.00 7.39C29.83 7.39 29.78 7.53 29.65 7.53C29.58 7.53 29.37 7.46 28.95 7.46C27.69 7.46 26.94 8.27 26.94 9.11ZM36.36 13.78C37.30 13.78 38.36 13.45 39.23 12.70C39.27 12.66 39.34 12.59 39.42 12.59C39.55 12.59 39.68 12.88 39.84 12.88C40.00 12.88 40.04 12.75 40.04 12.60L40.04 10.23C40.04 10.18 40.04 10.14 40.05 10.09C40.14 9.74 40.80 9.88 40.80 9.45C40.80 9.32 40.70 9.16 40.43 9.16C40.29 9.16 39.83 9.21 38.93 9.21L38.91 9.21C38.04 9.21 37.62 9.16 37.46 9.16C37.25 9.16 37.16 9.31 37.16 9.48C37.16 9.73 37.38 9.79 37.55 9.80C38.57 9.90 38.86 9.84 38.86 10.30L38.86 11.89C38.86 11.96 38.86 12.04 38.82 12.12C38.70 12.36 37.72 13.03 36.51 13.03C35.06 13.03 32.86 12.00 32.86 8.30C32.86 5.26 34.58 4.23 35.99 4.23C37.21 4.23 38.35 4.91 39.03 5.85C39.73 6.82 39.34 7.27 39.79 7.27C40.10 7.27 40.19 7.18 40.19 7.04C40.19 6.99 40.04 5.88 40.04 4.45L40.04 4.07C40.04 3.92 39.94 3.88 39.84 3.88C39.77 3.88 39.72 3.89 39.68 3.92C39.52 4.00 39.33 4.47 39.06 4.47L39.00 4.47C38.84 4.42 37.83 3.56 36.16 3.56C33.59 3.56 31.46 5.64 31.46 8.48C31.46 11.42 33.74 13.78 36.36 13.78ZM42.94 8.16C42.91 8.16 42.90 8.13 42.90 8.09L42.90 7.53C42.90 7.41 42.88 7.25 42.73 7.25C42.69 7.25 42.64 7.28 42.60 7.29C41.15 8.01 41.13 7.98 41.13 8.05C41.15 8.11 41.17 8.13 41.19 8.15C41.85 8.62 41.96 8.61 41.96 8.89L41.96 12.60C41.96 12.81 41.90 12.89 41.71 12.94C41.33 13.03 41.08 12.95 41.08 13.29C41.08 13.43 41.16 13.52 41.30 13.52C41.34 13.52 41.94 13.44 42.73 13.44C43.48 13.44 44.10 13.52 44.14 13.52C44.32 13.52 44.34 13.36 44.34 13.24C44.34 12.92 44.16 12.98 43.32 12.91C42.98 12.88 42.97 12.64 42.97 12.49L42.97 12.43L42.97 9.07C42.97 8.97 42.97 8.90 43.02 8.82C43.11 8.69 43.67 8.25 44.11 8.25C44.58 8.25 44.59 8.60 44.94 8.60C45.18 8.60 45.36 8.41 45.51 8.32C45.63 8.22 45.88 8.06 45.89 7.83L45.89 7.81C45.89 7.42 45.25 7.20 44.80 7.20C44.65 7.20 44.52 7.21 44.39 7.25C44.02 7.39 42.99 8.16 42.94 8.16ZM46.21 10.58C46.21 12.31 47.40 13.71 49.18 13.71C50.75 13.71 52.16 12.59 52.16 10.58C52.16 8.71 50.90 7.39 49.24 7.39C47.67 7.39 46.21 8.64 46.21 10.58ZM49.22 13.02C48.08 13.02 47.31 11.97 47.31 10.51C47.31 8.64 48.41 8.05 49.14 8.05C50.20 8.05 51.21 9.14 51.21 10.64C51.21 11.89 50.41 13.02 49.22 13.02ZM52.75 10.58C52.75 12.31 53.94 13.71 55.72 13.71C57.29 13.71 58.70 12.59 58.70 10.58C58.70 8.71 57.44 7.39 55.78 7.39C54.21 7.39 52.75 8.64 52.75 10.58ZM55.76 13.02C54.61 13.02 53.84 11.97 53.84 10.51C53.84 8.64 54.95 8.05 55.68 8.05C56.74 8.05 57.75 9.14 57.75 10.64C57.75 11.89 56.95 13.02 55.76 13.02ZM63.17 7.90C63.17 8.12 63.31 8.12 63.38 8.13C63.91 8.18 64.20 8.15 64.20 8.41C64.20 8.64 63.92 10.40 62.86 12.26C62.86 12.28 62.83 12.33 62.79 12.33C62.72 12.33 62.68 12.24 62.66 12.22C61.67 10.51 61.00 8.64 61.00 8.46C61.00 8.32 61.11 8.22 61.28 8.20C61.75 8.12 62.06 8.26 62.06 7.91C62.06 7.76 62.03 7.63 61.87 7.63C61.73 7.63 61.33 7.67 60.52 7.67C59.72 7.67 59.33 7.63 59.19 7.63C59.08 7.63 59.02 7.70 59.02 7.81C59.02 8.36 59.40 8.01 59.68 8.36C59.88 8.61 60.38 10.18 62.17 13.36C62.30 13.59 62.43 13.79 62.64 13.79C62.75 13.79 62.85 13.73 62.90 13.66C63.07 13.48 64.20 11.24 64.93 8.60C64.97 8.43 64.97 8.40 65.02 8.32C65.20 8.01 65.79 8.36 65.79 7.90C65.79 7.76 65.74 7.63 65.58 7.63C65.46 7.63 65.13 7.67 64.46 7.67C63.78 7.67 63.45 7.63 63.34 7.63C63.21 7.63 63.17 7.73 63.17 7.83ZM66.16 10.56C66.16 12.95 67.72 13.71 68.87 13.71C69.86 13.71 70.77 13.20 71.34 12.46C71.41 12.38 71.44 12.29 71.44 12.24C71.44 12.11 71.34 12.03 71.22 12.03C71.08 12.03 70.97 12.15 70.90 12.22C70.46 12.64 69.85 12.91 69.23 12.91C67.47 12.91 67.16 11.05 67.16 10.88C67.16 10.75 67.24 10.77 70.14 9.77C70.55 9.63 71.27 9.49 71.27 9.07L71.27 9.06C71.27 8.93 71.22 8.82 71.16 8.75C70.64 8.04 69.72 7.41 68.75 7.41C67.35 7.41 66.16 8.60 66.16 10.56ZM69.92 9.10C69.92 9.16 69.87 9.23 69.79 9.27C69.76 9.28 67.21 10.28 67.17 10.28C67.14 10.28 67.10 10.26 67.10 10.18C67.10 8.93 67.63 8.18 68.45 8.18C69.23 8.18 69.92 8.93 69.92 9.10ZM78.27 13.24C78.27 13.06 78.20 12.99 78.04 12.96C77.48 12.87 77.32 12.89 77.32 12.45L77.32 3.58C77.32 3.46 77.29 3.32 77.13 3.32C77.06 3.32 77 3.35 76.96 3.37C75.26 4.26 75.24 4.23 75.24 4.34L75.24 4.35C75.24 4.51 75.42 4.56 75.98 4.90C76.22 5.04 76.30 5.04 76.30 5.25L76.30 12.38C76.30 12.66 76.27 12.87 75.91 12.91C75.43 12.96 75.33 12.95 75.33 13.22L75.33 13.26C75.33 13.36 75.35 13.51 75.53 13.51C75.57 13.51 76.12 13.44 76.79 13.44C77.49 13.44 78.06 13.52 78.11 13.52C78.25 13.52 78.27 13.41 78.27 13.24ZM78.99 8.33L79.44 8.33C79.52 8.33 79.53 8.39 79.53 8.46C79.53 8.76 79.48 10.93 79.48 11.55C79.48 11.70 79.48 11.84 79.49 12.00C79.59 13.31 80.35 13.71 80.91 13.71C81.68 13.71 82.36 13.01 82.85 12.45C82.88 12.40 82.95 12.32 82.95 12.21C82.95 12.08 82.85 11.96 82.70 11.96C82.39 11.96 81.84 12.80 81.17 12.80C80.58 12.80 80.46 12.25 80.46 11.76C80.46 11.42 80.46 11.10 80.47 8.48C80.47 8.39 80.51 8.36 80.61 8.36L82.25 8.36C82.38 8.36 82.45 8.34 82.50 8.29C82.57 8.20 82.63 7.97 82.63 7.88C82.63 7.62 82.39 7.62 82.26 7.62C82.22 7.62 82.19 7.60 82.15 7.60L80.89 7.60C80.72 7.60 80.61 7.56 80.61 7.32C80.61 7.13 80.63 6.54 80.63 6.34C80.63 6.16 80.53 6.12 80.44 6.12C80.29 6.12 80.21 6.30 80.16 6.37C79.41 7.66 78.71 7.91 78.71 8.15C78.71 8.32 78.86 8.33 78.99 8.33ZM86.42 8.08C86.94 8.08 87.50 8.22 87.92 8.61C88.06 8.75 88.06 8.85 88.06 8.95L88.06 12.08C88.06 12.19 88.05 12.29 88.02 12.40C87.91 12.77 87.23 13.01 86.70 13.01C85.74 13.01 84.27 12.15 84.27 10.42C84.27 9.00 84.99 8.08 86.42 8.08ZM86.45 7.52L86.44 7.52C84.22 7.52 83.33 9.09 83.33 10.54C83.33 12.31 84.55 13.73 86.38 13.73C87.47 13.73 88.00 13.19 88.05 13.19C88.06 13.19 88.07 13.20 88.07 13.23L88.07 13.69C88.07 13.82 88.14 13.83 88.19 13.83C88.33 13.83 88.51 13.57 89.15 13.22C89.71 12.89 89.98 12.89 89.98 12.68C89.98 12.49 89.73 12.49 89.71 12.49C89.21 12.46 89.07 12.50 89.05 12.29C89.04 12.17 89.01 9.56 89.01 8.18C89.01 5.46 89.05 4.10 89.05 3.64C89.05 3.53 89.00 3.44 88.89 3.44C88.83 3.44 88.56 3.57 87.08 4.30C87.04 4.33 86.95 4.37 86.95 4.45C86.95 4.59 87.12 4.65 87.22 4.68C87.96 4.97 88.06 4.97 88.06 5.25L88.06 7.60C88.06 7.67 88.03 7.73 87.96 7.73C87.89 7.73 87.36 7.52 86.45 7.52Z"></path></g><!----><g data-v-423bf9ae="" id="194e39b4-189e-4d1d-ac23-99deb81dcdf0" transform="matrix(2.812499664723913,0,0,2.812499664723913,0.000005364417390296694,-0.018124997930137)" stroke="none" fill="#45C6B1"><path d="M6.651 27h6.024v5.01h6.651V27h6.024v5.01H32v-32h-6.651V5h-6.024V.01h-6.651V5H6.651V.01H0v32h6.651V27zM19.325 7h6.024v4.666h-6.024V7zm0 6.666h6.024v4.667h-6.024v-4.667zm0 6.667h6.024V25h-6.024v-4.667zM6.651 7h6.024v4.666H6.651V7zm0 6.666h6.024v4.667H6.651v-4.667zm0 6.667h6.024V25H6.651v-4.667z"></path></g><!----></svg>